# Blender 5.0.0
# www.blender.org
mtllib gun.mtl
o Cube
v 0.475932 -1.486765 -1.061992
v 0.475932 0.033230 -0.494099
v 0.475932 -1.283947 -2.419732
v 0.475932 0.310416 -1.615217
v 0.000000 -1.283947 -2.419732
v 0.000000 0.310416 -1.615217
v 0.000000 -1.486765 -1.061992
v 0.000000 0.033230 -0.494099
v 0.000000 0.310416 -1.615217
v 0.475932 0.310416 -1.615217
v 0.475932 0.033230 -0.494099
v 0.000000 0.033230 -0.494099
v 0.000000 0.944016 -1.933556
v 0.475932 0.944016 -1.933556
v 0.475932 0.984580 -0.285109
v 0.000000 0.984580 -0.285109
v 0.475932 0.613695 -1.652695
v 0.475932 0.549469 -0.382843
v 0.000000 0.508905 -0.389604
v 0.000000 0.633977 -1.666217
v 0.475932 1.004862 2.304886
v 0.000000 1.004862 2.304886
v 0.475932 0.684681 2.247716
v 0.000000 0.644118 2.240955
v -0.475932 -1.486765 -1.061992
v -0.475932 0.033230 -0.494099
v -0.475932 -1.283947 -2.419732
v -0.475932 0.310416 -1.615217
v -0.475932 0.310416 -1.615217
v -0.475932 0.033230 -0.494099
v -0.475932 0.944016 -1.933556
v -0.475932 0.984580 -0.285109
v -0.475932 0.613695 -1.652695
v -0.475932 0.549469 -0.382843
v -0.475932 1.004862 2.304886
v -0.475932 0.684681 2.247716
vn -0.0000 0.4505 -0.8928
vn 1.0000 -0.0000 -0.0000
vn -0.0000 -0.9890 -0.1477
vn -0.0000 1.0000 -0.0000
vn -0.0000 -0.3500 0.9368
vn -0.0000 0.9997 -0.0246
vn -0.0000 1.0000 -0.0078
vn -0.0031 -0.6503 -0.7597
vn 0.0111 -0.1398 -0.9901
vn 0.0021 -0.2125 0.9772
vn 0.0005 -0.1751 0.9846
vn 0.0841 -0.9951 0.0512
vn -1.0000 -0.0000 -0.0000
vn 0.0031 -0.6503 -0.7597
vn -0.0111 -0.1398 -0.9901
vn -0.0021 -0.2125 0.9772
vn -0.0005 -0.1751 0.9846
vn -0.0841 -0.9951 0.0512
vt 0.375000 0.375000
vt 0.625000 0.375000
vt 0.625000 0.500000
vt 0.375000 0.500000
vt 0.625000 0.750000
vt 0.375000 0.750000
vt 0.250000 0.500000
vt 0.250000 0.750000
vt 0.625000 0.875000
vt 0.375000 0.875000
vt 0.625000 0.750000
vt 0.750000 0.500000
vt 0.750000 0.750000
s 0
f 5/1/1 6/2/1 4/3/1 3/4/1
f 3/4/2 4/3/2 2/5/2 1/6/2
f 5/7/3 3/4/3 1/6/3 7/8/3
f 4/3/4 6/2/4 9/2/4 10/3/4
f 1/6/5 2/5/5 8/9/5 7/10/5
f 18/11/2 17/3/2 14/3/2 15/5/2
f 8/9/4 2/5/4 11/5/4 12/9/4
f 2/5/4 4/3/4 10/3/4 11/5/4
f 14/3/6 13/12/6 16/13/6 15/5/6
f 15/5/7 16/13/7 22/13/7 21/5/7
f 17/3/8 20/2/8 13/2/8 14/3/8
f 10/3/9 9/2/9 20/2/9 17/3/9
f 12/9/10 11/5/10 18/11/10 19/9/10
f 11/5/2 10/3/2 17/3/2 18/11/2
f 24/9/11 23/11/11 21/5/11 22/9/11
f 19/9/12 18/11/12 23/11/12 24/9/12
f 18/11/2 15/5/2 21/5/2 23/11/2
f 5/1/1 27/4/1 28/3/1 6/2/1
f 27/4/13 25/6/13 26/5/13 28/3/13
f 5/7/3 7/8/3 25/6/3 27/4/3
f 28/3/4 29/3/4 9/2/4 6/2/4
f 25/6/5 7/10/5 8/9/5 26/5/5
f 34/11/13 32/5/13 31/3/13 33/3/13
f 8/9/4 12/9/4 30/5/4 26/5/4
f 26/5/4 30/5/4 29/3/4 28/3/4
f 31/3/6 32/5/6 16/13/6 13/12/6
f 32/5/7 35/5/7 22/13/7 16/13/7
f 33/3/14 31/3/14 13/2/14 20/2/14
f 29/3/15 33/3/15 20/2/15 9/2/15
f 12/9/16 19/9/16 34/11/16 30/5/16
f 30/5/13 34/11/13 33/3/13 29/3/13
f 24/9/17 22/9/17 35/5/17 36/11/17
f 19/9/18 24/9/18 36/11/18 34/11/18
f 34/11/13 36/11/13 35/5/13 32/5/13
o Cube.001
v 0.000000 0.944016 -1.933556
v 0.000000 0.984580 -0.285109
v 0.000000 1.004862 2.304886
v 0.000000 1.437542 -1.933556
v 0.000000 1.478106 -0.285109
v 0.000000 1.498388 2.304886
v 0.416578 1.437542 -1.933556
v 0.475932 1.378178 -1.933556
v 0.416578 1.478106 -0.285109
v 0.475932 1.418742 -0.285109
v 0.475932 1.439024 2.304886
v 0.416578 1.498388 2.304886
v 0.475932 0.963367 -1.933556
v 0.456585 0.944016 -1.933556
v 0.475932 1.003931 -0.285109
v 0.456585 0.984580 -0.285109
v 0.456585 1.004862 2.304886
v 0.475932 1.024212 2.304886
v -0.416578 1.437542 -1.933556
v -0.475932 1.378178 -1.933556
v -0.416578 1.478106 -0.285109
v -0.475932 1.418742 -0.285109
v -0.475932 1.439024 2.304886
v -0.416578 1.498388 2.304886
v -0.475932 0.963367 -1.933556
v -0.456585 0.944016 -1.933556
v -0.475932 1.003931 -0.285109
v -0.456585 0.984580 -0.285109
v -0.456585 1.004862 2.304886
v -0.475932 1.024212 2.304886
vn 0.7071 0.7069 -0.0174
vn 0.7072 0.7070 -0.0055
vn -0.0000 0.9997 -0.0246
vn -0.0000 1.0000 -0.0078
vn 0.7071 -0.7069 0.0174
vn 0.7072 -0.7070 0.0055
vn -0.0000 -0.0000 -1.0000
vn -0.0000 -0.9997 0.0246
vn 1.0000 -0.0000 -0.0000
vn -0.0000 -1.0000 0.0078
vn -0.0000 -0.0000 1.0000
vn -0.7071 0.7069 -0.0174
vn -0.7072 0.7070 -0.0055
vn -0.7071 -0.7069 0.0174
vn -0.7072 -0.7070 0.0055
vn -1.0000 -0.0000 -0.0000
vt 0.640589 0.500000
vt 0.640589 0.750000
vt 0.625000 0.750000
vt 0.625000 0.500000
vt 0.750000 0.500000
vt 0.750000 0.750000
vt 0.630081 0.750000
vt 0.630082 0.500000
vt 0.630082 0.750000
s 0
f 43/14/19 45/15/19 46/16/19 44/17/19
f 47/16/20 46/16/20 45/15/20 48/15/20
f 43/14/21 40/18/21 41/19/21 45/15/21
f 45/15/22 41/19/22 42/19/22 48/15/22
f 49/17/23 51/16/23 52/20/23 50/21/23
f 53/22/24 52/20/24 51/16/24 54/16/24
f 49/17/25 50/21/25 37/18/25 40/18/25 43/14/25 44/17/25
f 50/21/26 52/20/26 38/19/26 37/18/26
f 51/16/27 49/17/27 44/17/27 46/16/27
f 52/20/28 53/22/28 39/19/28 38/19/28
f 54/16/27 51/16/27 46/16/27 47/16/27
f 39/19/29 53/22/29 54/16/29 47/16/29 48/15/29 42/19/29
f 55/14/30 56/17/30 58/16/30 57/15/30
f 59/16/31 60/15/31 57/15/31 58/16/31
f 55/14/21 57/15/21 41/19/21 40/18/21
f 57/15/22 60/15/22 42/19/22 41/19/22
f 61/17/32 62/21/32 64/20/32 63/16/32
f 65/22/33 66/16/33 63/16/33 64/20/33
f 61/17/25 56/17/25 55/14/25 40/18/25 37/18/25 62/21/25
f 62/21/26 37/18/26 38/19/26 64/20/26
f 63/16/34 58/16/34 56/17/34 61/17/34
f 64/20/28 38/19/28 39/19/28 65/22/28
f 66/16/34 59/16/34 58/16/34 63/16/34
f 39/19/29 42/19/29 60/15/29 59/16/29 66/16/29 65/22/29
o Circle
v -0.007960 1.485236 2.255969
v -0.192137 1.428803 2.255969
v -0.268426 1.244625 2.255969
v -0.192137 1.060448 2.255969
v -0.007960 0.984159 2.255969
v 0.176218 1.040591 2.255969
v 0.252507 1.224769 2.255969
v 0.176218 1.408947 2.255969
v -0.148453 1.084276 2.398871
v -0.192137 1.040591 2.341794
v -0.206647 1.224769 2.398871
v -0.268426 1.224769 2.341794
v -0.007960 1.485236 2.341794
v -0.007960 1.423456 2.398871
v -0.148453 1.365262 2.398871
v -0.192137 1.408947 2.341794
v -0.192137 1.428803 2.277662
v -0.148453 1.365262 2.334739
v -0.007960 1.423456 2.334739
v -0.007960 1.485236 2.277662
v -0.268426 1.244625 2.277662
v -0.206647 1.224769 2.334739
v -0.192137 1.060448 2.277662
v -0.148453 1.084276 2.334739
v -0.007960 0.984159 2.277662
v -0.007960 1.026082 2.334739
v 0.176218 1.040591 2.277662
v 0.132533 1.084276 2.334739
v 0.252507 1.224769 2.277662
v 0.190728 1.224769 2.334739
v 0.176218 1.408947 2.277662
v 0.132533 1.365262 2.334739
v -0.007960 0.964302 2.341794
v -0.007960 1.026082 2.398871
v 0.176218 1.040591 2.341794
v 0.132533 1.084276 2.398871
v 0.252507 1.224769 2.341794
v 0.190728 1.224769 2.398871
v 0.176218 1.408947 2.341794
v 0.132533 1.365262 2.398871
vn -0.0000 -0.0000 -1.0000
vn 0.6533 0.2706 0.7071
vn 0.6533 -0.2706 0.7071
vn 0.2706 -0.6533 0.7071
vn -0.2706 -0.6533 0.7071
vn -0.6533 -0.2706 0.7071
vn -0.6533 0.2706 0.7071
vn -0.2706 0.6533 0.7071
vn -0.9175 -0.3800 -0.1177
vn 0.2706 0.6533 0.7071
vn 0.3827 -0.9239 -0.0000
vn 0.3827 0.9239 -0.0000
vn 0.9239 0.3827 -0.0000
vn 0.3354 -0.9310 -0.1441
vn -0.3827 -0.9239 -0.0000
vn -0.3827 0.9239 -0.0000
vn -0.9175 0.3800 0.1177
vn -0.2930 0.9561 -0.0000
vn -0.0000 -0.0000 1.0000
vn -0.9239 0.3827 -0.0000
vn -0.9239 -0.3827 -0.0000
vn 0.2930 -0.9561 -0.0000
vn 0.9239 -0.3827 -0.0000
vn -0.3354 0.9310 0.1441
vn -0.3679 -0.8883 -0.2750
vt 0.500000 1.000000
vt 0.853553 0.853553
vt 1.000000 0.500000
vt 0.853553 0.146447
vt 0.500000 0.000000
vt 0.146447 0.146447
vt 0.000000 0.500000
vt 0.146447 0.853553
vt 0.769695 0.769695
vt 0.881406 0.500000
vt 0.769695 0.230305
vt 0.500000 0.118594
vt 0.230305 0.230305
vt 0.118594 0.500000
vt 0.230305 0.769695
vt 0.500000 0.881406
s 0
f 67/23/35 74/24/35 73/25/35 72/26/35 71/27/35 70/28/35 69/29/35 68/30/35
f 106/31/36 104/32/36 103/25/36 105/24/36
f 104/32/37 102/33/37 101/26/37 103/25/37
f 102/33/38 100/34/38 99/27/38 101/26/38
f 100/34/39 75/35/39 76/28/39 99/27/39
f 75/35/40 77/36/40 78/29/40 76/28/40
f 77/36/41 81/37/41 82/30/41 78/29/41
f 81/37/42 80/38/42 79/23/42 82/30/42
f 87/29/43 89/28/43 76/28/43 78/29/43
f 80/38/44 106/31/44 105/24/44 79/23/44
f 84/37/45 85/38/45 80/38/45 81/37/45
f 97/24/46 86/23/46 79/23/46 105/24/46
f 90/35/47 88/36/47 77/36/47 75/35/47
f 91/27/48 93/26/48 101/26/48 99/27/48
f 85/38/49 98/31/49 106/31/49 80/38/49
f 94/33/50 92/34/50 100/34/50 102/33/50
f 95/25/47 97/24/47 105/24/47 103/25/47
f 83/30/51 87/29/51 78/29/51 82/30/51
f 67/23/52 68/30/52 83/30/52 86/23/52
f 85/38/53 84/37/53 88/36/53 90/35/53 92/34/53 94/33/53 96/32/53 98/31/53
f 68/30/54 69/29/54 87/29/54 83/30/54
f 74/24/46 67/23/46 86/23/46 97/24/46
f 69/29/55 70/28/55 89/28/55 87/29/55
f 70/28/49 71/27/49 91/27/49 89/28/49
f 71/27/56 72/26/56 93/26/56 91/27/56
f 72/26/57 73/25/57 95/25/57 93/26/57
f 73/25/47 74/24/47 97/24/47 95/25/47
f 96/32/54 94/33/54 102/33/54 104/32/54
f 86/23/58 83/30/58 82/30/58 79/23/58
f 93/26/57 95/25/57 103/25/57 101/26/57
f 92/34/46 90/35/46 75/35/46 100/34/46
f 89/28/59 91/27/59 99/27/59 76/28/59
f 88/36/57 84/37/57 81/37/57 77/36/57
f 98/31/55 96/32/55 104/32/55 106/31/55
